<svg width="32" height="32" viewBox="0 0 32 32" fill="none" xmlns="http://www.w3.org/2000/svg">
  <!-- Background with aura effect -->
  <defs>
    <radialGradient id="auraBg" cx="50%" cy="50%" r="50%">
      <stop offset="0%" style="stop-color:#6366f1;stop-opacity:1" />
      <stop offset="70%" style="stop-color:#8b5cf6;stop-opacity:0.8" />
      <stop offset="100%" style="stop-color:#ec4899;stop-opacity:0.6" />
    </radialGradient>
    <linearGradient id="waveGradient" x1="0%" y1="0%" x2="100%" y2="0%">
      <stop offset="0%" style="stop-color:#ffffff;stop-opacity:0.9" />
      <stop offset="100%" style="stop-color:#ffffff;stop-opacity:0.7" />
    </linearGradient>
  </defs>
  
  <!-- Main background circle -->
  <circle cx="16" cy="16" r="16" fill="url(#auraBg)"/>
  
  <!-- Speech/audio waves representing emotion detection -->
  <path d="M6 14 Q10 10, 14 14 Q18 18, 22 14" stroke="url(#waveGradient)" stroke-width="1.5" fill="none" stroke-linecap="round"/>
  <path d="M6 16 Q10 12, 14 16 Q18 20, 22 16" stroke="url(#waveGradient)" stroke-width="1.5" fill="none" stroke-linecap="round"/>
  <path d="M6 18 Q10 14, 14 18 Q18 22, 22 18" stroke="url(#waveGradient)" stroke-width="1.5" fill="none" stroke-linecap="round"/>
  
  <!-- Central emotion indicator -->
  <circle cx="16" cy="16" r="3" fill="#ffffff" opacity="0.9"/>
  <circle cx="16" cy="16" r="1.5" fill="#6366f1"/>
  
  <!-- Small accent dots -->
  <circle cx="12" cy="12" r="1" fill="#ffffff" opacity="0.6"/>
  <circle cx="20" cy="12" r="1" fill="#ffffff" opacity="0.6"/>
  <circle cx="12" cy="20" r="1" fill="#ffffff" opacity="0.6"/>
  <circle cx="20" cy="20" r="1" fill="#ffffff" opacity="0.6"/>
</svg>

