<svg width="32" height="32" viewBox="0 0 32 32" fill="none" xmlns="http://www.w3.org/2000/svg">
  <!-- AuraSense Logo Favicon - Brain with Aura Effect -->
  <defs>
    <!-- Primary gradient matching your brand -->
    <linearGradient id="primaryGradient" x1="0%" y1="0%" x2="100%" y2="100%">
      <stop offset="0%" style="stop-color:#6366f1;stop-opacity:1" />
      <stop offset="50%" style="stop-color:#8b5cf6;stop-opacity:1" />
      <stop offset="100%" style="stop-color:#ec4899;stop-opacity:1" />
    </linearGradient>
    
    <!-- Secondary gradient for brain -->
    <linearGradient id="brainGradient" x1="0%" y1="0%" x2="100%" y2="100%">
      <stop offset="0%" style="stop-color:#ffffff;stop-opacity:0.95" />
      <stop offset="100%" style="stop-color:#f8fafc;stop-opacity:0.9" />
    </linearGradient>
    
    <!-- Aura glow effect -->
    <radialGradient id="auraGlow" cx="50%" cy="50%" r="50%">
      <stop offset="0%" style="stop-color:#6366f1;stop-opacity:0.3" />
      <stop offset="70%" style="stop-color:#8b5cf6;stop-opacity:0.1" />
      <stop offset="100%" style="stop-color:#ec4899;stop-opacity:0.05" />
    </radialGradient>
  </defs>
  
  <!-- Background circle with aura effect -->
  <circle cx="16" cy="16" r="16" fill="url(#auraGlow)"/>
  
  <!-- Main brain shape (simplified for favicon) -->
  <path d="M8 12 C8 8, 12 6, 16 8 C20 6, 24 8, 24 12 C24 16, 22 20, 18 22 C16 24, 16 24, 16 24 C16 24, 16 24, 14 22 C10 20, 8 16, 8 12 Z" 
        fill="url(#brainGradient)" 
        stroke="url(#primaryGradient)" 
        stroke-width="1.5"/>
  
  <!-- Brain neural network lines -->
  <path d="M12 10 L14 14 L12 18" stroke="#6366f1" stroke-width="1" fill="none" stroke-linecap="round"/>
  <path d="M20 10 L18 14 L20 18" stroke="#8b5cf6" stroke-width="1" fill="none" stroke-linecap="round"/>
  <path d="M16 8 L16 12 L16 16" stroke="#ec4899" stroke-width="1" fill="none" stroke-linecap="round"/>
  
  <!-- Central emotion detection dot -->
  <circle cx="16" cy="16" r="2" fill="url(#primaryGradient)"/>
  
  <!-- Small accent dots representing neural activity -->
  <circle cx="10" cy="14" r="0.8" fill="#6366f1" opacity="0.7"/>
  <circle cx="22" cy="14" r="0.8" fill="#8b5cf6" opacity="0.7"/>
  <circle cx="16" cy="20" r="0.8" fill="#ec4899" opacity="0.7"/>
</svg>

